<svg width="28" height="28" viewBox="0 0 28 28" fill="none" xmlns="http://www.w3.org/2000/svg">
<path fill-rule="evenodd" clip-rule="evenodd" d="M22.4 14.1989C22.4 13.5784 22.3443 12.9818 22.2409 12.4091H14V15.7938H18.7091C18.5063 16.8875 17.8898 17.8142 16.9631 18.4347V20.6302H19.7909C21.4455 19.1069 22.4 16.8637 22.4 14.1989Z" fill="#4285F4"/>
<path fill-rule="evenodd" clip-rule="evenodd" d="M14 22.75C16.3625 22.75 18.3432 21.9665 19.7909 20.6302L16.9631 18.4347C16.1795 18.9597 15.1773 19.2699 14 19.2699C11.721 19.2699 9.79203 17.7307 9.10396 15.6625H6.18066V17.9296C7.62044 20.7893 10.5795 22.75 14 22.75Z" fill="#34A853"/>
<path fill-rule="evenodd" clip-rule="evenodd" d="M9.10398 15.6625C8.92898 15.1375 8.82955 14.5768 8.82955 14C8.82955 13.4233 8.92898 12.8625 9.10398 12.3375V10.0705H6.18068C5.58807 11.2517 5.25 12.5881 5.25 14C5.25 15.412 5.58807 16.7483 6.18068 17.9296L9.10398 15.6625Z" fill="#FBBC05"/>
<path fill-rule="evenodd" clip-rule="evenodd" d="M14 8.73018C15.2847 8.73018 16.4381 9.17166 17.3449 10.0387L19.8546 7.52904C18.3392 6.11711 16.3585 5.25006 14 5.25006C10.5795 5.25006 7.62044 7.21086 6.18066 10.0705L9.10396 12.3376C9.79203 10.2694 11.721 8.73018 14 8.73018Z" fill="#EA4335"/>
</svg>
