<svg width="23" height="24" viewBox="0 0 23 24" fill="none" xmlns="http://www.w3.org/2000/svg">
<path d="M6.22148 6.15107L3.51116 4.41448C3.27732 4.27072 3.23898 3.94679 3.43258 3.7532L4.45038 2.73539C4.64589 2.53988 4.97558 2.58205 5.1155 2.82165L6.80992 5.57604C7.03227 5.95556 6.59716 6.38109 6.22148 6.15107Z" fill="#FFC107"/>
<path d="M3.85192 14.5043L0.704588 14.5675C0.43049 14.5733 0.23498 14.834 0.303984 15.0985L0.670086 16.49C0.741007 16.7584 1.04577 16.8868 1.28729 16.7526L4.06852 15.2978C4.45187 15.0812 4.29278 14.4947 3.85192 14.5043Z" fill="#FFC107"/>
<path d="M11.1627 19.8503L10.4726 22.9152C10.4094 23.1816 10.6106 23.4385 10.8847 23.4385H12.3242C12.6022 23.4385 12.8034 23.1759 12.7344 22.9075L11.985 19.8426C11.8738 19.4152 11.2662 19.4209 11.1627 19.8503Z" fill="#FFC107"/>
<path d="M16.7788 6.15107L19.4891 4.41448C19.7229 4.27072 19.7613 3.94679 19.5677 3.7532L18.5499 2.73539C18.3544 2.53988 18.0247 2.58205 17.8848 2.82165L16.1903 5.57604C15.968 5.95556 16.4031 6.38109 16.7788 6.15107Z" fill="#FFC107"/>
<path d="M19.1479 14.5043L22.2952 14.5675C22.5693 14.5733 22.7649 14.834 22.6958 15.0985L22.3297 16.49C22.2588 16.7584 21.9541 16.8868 21.7125 16.7526L18.9313 15.2978C18.548 15.0812 18.7071 14.4947 19.1479 14.5043Z" fill="#FFC107"/>
<path d="M12.2766 0.481349L14.8566 6.36583C15.054 6.81627 15.4814 7.12487 15.9721 7.16895L22.2572 7.73248C22.9683 7.83599 23.252 8.70812 22.7364 9.21031L18.002 13.1876C17.6186 13.5096 17.4442 14.0157 17.5496 14.5044L18.9259 20.9467C19.0466 21.654 18.3048 22.1945 17.6685 21.8591L12.1827 18.6466C11.761 18.3993 11.2396 18.3993 10.8179 18.6466L5.33214 21.8572C4.69769 22.1907 3.95398 21.6521 4.07474 20.9448L5.45098 14.5025C5.55449 14.0137 5.38198 13.5077 4.99862 13.1857L0.262288 9.21223C-0.251406 8.71195 0.0322754 7.83791 0.74148 7.7344L7.02657 7.17087C7.51726 7.12679 7.9447 6.81819 8.14213 6.36774L10.7221 0.483266C11.0422 -0.160769 11.9584 -0.160769 12.2766 0.481349Z" fill="#FDD835"/>
<path d="M12.0885 6.71856L11.6515 2.38283C11.6343 2.14132 11.5844 1.72729 11.9716 1.72729C12.2783 1.72729 12.445 2.36558 12.445 2.36558L13.7561 5.84643C14.2506 7.17092 14.0475 7.62519 13.5702 7.89354C13.022 8.20022 12.2131 7.96063 12.0885 6.71856Z" fill="#FFFF8D"/>
<path d="M17.4962 12.8024L21.2569 9.86785C21.4428 9.71259 21.7783 9.46533 21.5099 9.18357C21.2971 8.96122 20.7221 9.28132 20.7221 9.28132L17.431 10.5675C16.4496 10.9067 15.7979 11.4089 15.7404 12.0415C15.6657 12.8848 16.4228 13.5346 17.4962 12.8024Z" fill="#F4B400"/>
</svg>
